<svg xmlns="http://www.w3.org/2000/svg" width="178.952" height="31.093" viewBox="0 0 178.952 31.093">
  <g id="Logo" transform="translate(-32.119 -23.869)">
    <g id="Group_2667" data-name="Group 2667" transform="translate(32.119 23.869)">
      <path id="Path_2313" data-name="Path 2313" d="M20.834,3.152l-8.954.012c-.719,0-1.438.006-2.157-.007a.509.509,0,0,0-.518.3Q6.529,8.147,3.824,12.827a.543.543,0,0,0,.014.63q3.582,6.177,7.15,12.36c.075.13.144.263.26.475H10.56c-.87,0-1.742-.013-2.611.007a.569.569,0,0,1-.574-.346Q3.816,19.76.238,13.582C.173,13.47.155,13.314,0,13.266v-.249c.111-.051.139-.166.192-.257Q1.5,10.5,2.8,8.247,5.176,4.125,7.549,0H19.163a13.292,13.292,0,0,0,.905,1.735C20.282,2.23,20.724,2.6,20.834,3.152Z" fill="#0568a9"/>
      <path id="Path_2315" data-name="Path 2315" d="M128.337,237.476l.075.074H115.893a21,21,0,0,0-2.352-.045.46.46,0,0,1-.46-.26c-1.4-2.163-2.6-4.444-3.906-6.658-.988-1.669-1.948-3.356-2.918-5.036-.059-.1-.193-.207-.125-.332.083-.148.249-.06.377-.06.939,0,1.878.007,2.82-.017a.547.547,0,0,1,.567.3q1.908,3.334,3.828,6.661c.383.664.787,1.322,1.156,2,.122.223.288.218.482.218h3.77l7.376.013c-.15.108-.322.058-.483.058H115.542c-.257,0-.472.008-.294.345.37.7.731,1.41,1.136,2.092a1.2,1.2,0,0,0,1.148.654C121.129,237.449,124.734,237.472,128.337,237.476Z" transform="translate(-97.311 -206.457)" fill="#0594d8"/>
      <path id="Path_2316" data-name="Path 2316" d="M232.672,3.152c-.11-.551-.552-.921-.771-1.416A12.9,12.9,0,0,1,231,0h3.65a21.531,21.531,0,0,0,1.227,2.191q2.424,4.223,4.867,8.434c.321.555.645,1.107,1.01,1.734a24.493,24.493,0,0,0-2.553.018,1.549,1.549,0,0,1-1.716-.99c-1.4-2.519-2.886-4.986-4.329-7.475A2.7,2.7,0,0,0,232.672,3.152Z" transform="translate(-211.837)" fill="#0594d8"/>
      <path id="Path_2317" data-name="Path 2317" d="M228.5,83.439c-3.6,0-7.209-.027-10.813.008a1.194,1.194,0,0,1-1.148-.654c-.4-.682-.766-1.39-1.136-2.092-.178-.337.037-.346.294-.345q5.242.007,10.483,0c.161,0,.332.05.483-.058a26.726,26.726,0,0,0,1.493-2.517c1.368-2.362,2.711-4.737,4.08-7.1a.612.612,0,0,0-.007-.712q-3.57-6.156-7.123-12.326c-.071-.124-.238-.257-.155-.4s.28-.066.427-.066c.939,0,1.879.012,2.821,0a.483.483,0,0,1,.491.273Q232.3,63.734,235.929,70a.566.566,0,0,1,.008.645q-2.253,3.885-4.495,7.776-1.327,2.306-2.661,4.612A1.116,1.116,0,0,1,228.5,83.439Z" transform="translate(-197.472 -52.42)" fill="#0568a9"/>
      <path id="Path_2318" data-name="Path 2318" d="M120.906,171.052c-.041-.275-.263-.154-.395-.154q-7.065-.01-14.128,0c-.276,0-.552-.008-.83,0-.212.007-.3-.068-.175-.258.581-.886,1.015-1.854,1.627-2.719a1.413,1.413,0,0,1,.857-.166c.972,0,1.945-.008,2.918-.014l15.169.007h.532c-.635,1.09-1.192,2.157-1.861,3.16h-3.27C121.182,170.9,121.016,170.887,120.906,171.052Z" transform="translate(-96.584 -153.825)" fill="#0594d8"/>
      <path id="Path_2326" data-name="Path 2326" d="M229.29,206.034c.11-.166.276-.147.444-.146H233c-.529,1.073-1.178,2.081-1.771,3.117-1.107,1.935-2.24,3.857-3.353,5.789-.1.177-.186.306-.429.3-1.226-.012-2.454-.006-3.681-.007-.094,0-.2.016-.26-.083h3.633c.127,0,.295.066.365-.1.058-.143-.041-.263-.109-.381-.309-.533-.587-1.085-.937-1.59-.232-.336-.332-.785-.747-.981.255-.052.315-.282.422-.467Z" transform="translate(-204.968 -188.808)" fill="#0568a9"/>
      <path id="Path_2327" data-name="Path 2327" d="M129.4,66.824c-.972.006-1.945.018-2.918.014a1.469,1.469,0,0,0-.857.166,23.692,23.692,0,0,1,1.214-2.157c1.338-2.334,2.7-4.655,4.047-6.982a1.786,1.786,0,0,1,.117-.166,24.379,24.379,0,0,1,1.788,3.157L130.306,65.2C130,65.738,129.706,66.283,129.4,66.824Z" transform="translate(-115.209 -52.913)" fill="#0568a9"/>
      <path id="Path_2329" data-name="Path 2329" d="M192.238,60.217a24.51,24.51,0,0,0-1.788-3.159,8.855,8.855,0,0,1,1.562-.042c.772-.013,1.545.008,2.317-.01a.522.522,0,0,1,.523.3c.463.811.935,1.618,1.4,2.426.068.117.207.249.149.363s-.245.056-.376.056H192.6A.7.7,0,0,0,192.238,60.217Z" transform="translate(-174.651 -52.274)" fill="#0594d8"/>
      <path id="Path_2330" data-name="Path 2330" d="M206.06,278.238c.415.2.517.645.747.981.349.505.628,1.058.937,1.59.069.118.166.238.109.381-.071.17-.238.1-.365.1-1.21,0-2.421,0-3.633,0l-1.716-2.852c-.12-.2-.051-.276.161-.273Z" transform="translate(-185.316 -255.093)" fill="#0594d8"/>
    </g>
    <g id="Group_2668" data-name="Group 2668" transform="translate(80.636 29.869)">
      <path id="Path_2314" data-name="Path 2314" d="M912.632,73.935c-.3.245-.228.62-.3.937a7.176,7.176,0,0,1-6.284,5.893,70.239,70.239,0,0,1-7.79.185c-.593.018-.414-.438-.414-.739q-.013-6.449,0-12.9c0-.9.026-1.8-.008-2.708-.018-.494.091-.7.647-.69,1.989.033,3.982-.08,5.97.032,4.1.234,7.29,1.929,8.039,7.184.016.108.027.207.14.256Zm-10.374-1.559v3.1c0,1.61,0,1.61,1.629,1.61,2.219,0,3.538-.866,4.065-2.708a6.645,6.645,0,0,0,.126-3.149c-.468-2.383-1.706-3.418-4.117-3.48-.344-.01-.691.027-1.034,0-.511-.053-.694.126-.68.656C902.28,69.724,902.258,71.049,902.258,72.376Z" transform="translate(-844.984 -63.609)" fill="#0568a9"/>
      <path id="Path_2319" data-name="Path 2319" d="M750.683,229.015a8.809,8.809,0,1,1-.18-17.616,8.811,8.811,0,1,1,.18,17.616Zm.016-3.847a4.737,4.737,0,0,0,4.539-4.938,4.809,4.809,0,0,0-4.579-5,4.982,4.982,0,0,0,.04,9.941Z" transform="translate(-640.571 -211.394)" fill="#0568a9"/>
      <path id="Path_2320" data-name="Path 2320" d="M568.2,223.047c.291,0,.585.011.874,0,.742-.035,1.332-.135,1.5,1a1.571,1.571,0,0,0,2.719.771,1.261,1.261,0,0,0-.264-2.126c-.956-.513-1.97-.9-2.953-1.365a12.366,12.366,0,0,1-1.481-.76,4.69,4.69,0,0,1-.365-7.9,6.863,6.863,0,0,1,7.688-.223,4.814,4.814,0,0,1,2.018,3.628c.054.5-.105.647-.6.629-1.034-.035-2.071-.027-3.1,0a.606.606,0,0,1-.71-.524,1.356,1.356,0,0,0-1.809-1.07,1.274,1.274,0,0,0-1.061,1.051,1.013,1.013,0,0,0,.663,1.145c1.233.608,2.486,1.179,3.71,1.816,1.343.7,2.583,1.555,2.918,3.159.62,2.982-.545,6.333-4.853,6.69a8.378,8.378,0,0,1-4.057-.532,5.265,5.265,0,0,1-3.036-4.922c-.019-.347.118-.478.457-.468C567.033,223.058,567.616,223.047,568.2,223.047Z" transform="translate(-492.857 -211.372)" fill="#0568a9"/>
      <path id="Path_2321" data-name="Path 2321" d="M654.531,72.522c0-2.571.016-5.14-.011-7.711,0-.588.1-.836.769-.811,2.356.092,4.715-.072,7.07.129,3.713.319,5.468,3.593,4.868,6.733-.637,3.354-2.525,4.769-6.123,4.845-.53.011-1.061.024-1.593,0-.492-.029-.637.17-.637.647.025,1.325-.011,2.65.018,3.974.013.521-.089.761-.685.73a29.2,29.2,0,0,0-2.94,0c-.577.027-.768-.115-.758-.731.038-2.6.016-5.194.016-7.79Zm4.356-2.7c0,.5.019,1.007,0,1.508-.021.408.124.583.542.554.685-.045,1.378-.027,2.058-.11a1.918,1.918,0,0,0,.213-3.764,6.774,6.774,0,0,0-1.255-.159c-1.558-.08-1.558-.073-1.558,1.494Z" transform="translate(-640.425 -63.698)" fill="#0568a9"/>
      <path id="Path_2322" data-name="Path 2322" d="M654.525,221.777c0-2.574.024-5.148-.014-7.72-.01-.647.2-.8.808-.8,2.2.051,4.406.01,6.605.089a5.3,5.3,0,0,1,5.4,5.478,5.483,5.483,0,0,1-5.134,6.034,20.7,20.7,0,0,1-2.708.081c-.491-.01-.637.167-.624.65.03,1.325-.019,2.654.024,3.982.019.573-.169.72-.717.694-.956-.043-1.911-.046-2.867,0-.605.03-.833-.121-.8-.776.056-1.3.019-2.6.019-3.9Q654.528,223.688,654.525,221.777Zm5.667-4.684c-1.312,0-1.312,0-1.312,1.3v.554c0,2.507,0,2.507,2.537,2.085a1.8,1.8,0,0,0,1.725-1.978,1.814,1.814,0,0,0-1.844-1.873C660.931,217.135,660.56,217.119,660.192,217.092Z" transform="translate(-567.266 -212.959)" fill="#0568a9"/>
      <path id="Path_2323" data-name="Path 2323" d="M573.706,66.91a1.585,1.585,0,0,0-1.929-1.062,1.347,1.347,0,0,0-1.058,1.067,1.118,1.118,0,0,0,.747,1.195c1.371.688,2.77,1.325,4.141,2.029,4.049,2.088,2.771,7.44.282,8.768a7.8,7.8,0,0,1-5.016.741,5.105,5.105,0,0,1-4.778-5.138c-.043-.569.118-.747.686-.723.98.043,1.964.043,2.944,0,.569-.024.776.137.827.736a1.666,1.666,0,0,0,1.311,1.518,1.461,1.461,0,0,0,1.564-.524,1.243,1.243,0,0,0-.3-2.071,18.214,18.214,0,0,0-2.6-1.193,9.276,9.276,0,0,1-2.23-1.2,4.693,4.693,0,0,1-.578-7.112c2.421-2.59,7.419-2.4,9.4.357a3.387,3.387,0,0,1,.741,1.811c0,1.257.282,1.226-1.212,1.223-.607,0-1.219-.033-1.822.013A1.236,1.236,0,0,1,573.706,66.91Z" transform="translate(-566.089 -62.111)" fill="#0568a9"/>
      <path id="Path_2324" data-name="Path 2324" d="M745.941,72.5c0-2.571.014-5.142-.011-7.712,0-.551.073-.8.718-.78,2.783.038,5.575.022,8.351,0,.454,0,.674.072.648.6-.043.9-.027,1.8,0,2.708.013.421-.137.543-.549.537-1.351-.021-2.708.011-4.055-.014-.478-.01-.7.068-.7.637-.014,2.031-.038,2.029,2.012,2.028.849,0,1.7.016,2.548,0,.4-.01.57.113.559.54-.025.9-.027,1.8,0,2.708.014.456-.148.6-.594.594-1.3-.022-2.6.013-3.9-.019-.478-.013-.637.134-.637.621a7.755,7.755,0,0,1-.073,1.887c-.1.432.368.358.628.36,1.325.016,2.652.045,3.982-.01.645-.025.823.182.787.8-.049.844-.035,1.7,0,2.548.014.428-.145.538-.551.537q-4.334-.019-8.67,0c-.556,0-.489-.336-.487-.682V72.5Z" transform="translate(-717.285 -63.704)" fill="#0568a9"/>
      <path id="Path_2325" data-name="Path 2325" d="M826.328,77.212c1.518,0,3.052.021,4.586-.013.524-.011.7.145.68.669-.033.873-.018,1.752,0,2.623,0,.371-.048.588-.508.585q-4.336-.024-8.671,0c-.637,0-.492-.4-.494-.741V67.852c0-1.088.016-2.174,0-3.26,0-.409.113-.553.538-.551q4.3.024,8.59,0c.409,0,.565.11.553.535-.025.847-.037,1.7.01,2.548.03.578-.131.787-.747.765-1.351-.049-2.708,0-4.055-.029-.5-.013-.672.159-.6.637a8.121,8.121,0,0,1,.142,1.645c-.024.454.319.39.612.39,1.274,0,2.548.024,3.823-.01.527-.013.69.159.667.677-.035.847-.037,1.7,0,2.548.024.51-.18.637-.647.621-1.246-.024-2.494.029-3.738-.024-.62-.025-.769.2-.734.761C826.36,75.777,826.328,76.465,826.328,77.212Z" transform="translate(-781.161 -63.733)" fill="#0568a9"/>
      <path id="Path_2328" data-name="Path 2328" d="M859.283,223.7c0-1.935-.026-3.871.016-5.8.013-.615-.19-.782-.765-.749-.687.04-1.379-.014-2.071.014-.427.018-.546-.145-.537-.551.024-.927.022-1.856,0-2.783,0-.371.107-.524.492-.518,2.942.057,5.893-.072,8.826.072a4.881,4.881,0,0,0,1.115,0c.554-.1.7.118.688.628-.022.863-.025,1.73,0,2.593.013.424-.15.572-.554.561-.556-.014-1.115,0-1.671,0-1.284,0-1.115-.142-1.125,1.155,0,3.711-.024,7.422.018,11.134.008.72-.2.91-.887.865a22.219,22.219,0,0,0-2.783,0c-.658.041-.787-.209-.776-.811C859.3,227.569,859.283,225.634,859.283,223.7Z" transform="translate(-736.613 -213)" fill="#0568a9"/>
      <path id="Path_2331" data-name="Path 2331" d="M613.75,88.036a1.236,1.236,0,0,0,1.115.44c.6-.046,1.215-.014,1.822-.013,1.494,0,1.22.033,1.212-1.223a1.951,1.951,0,0,1,.129.365c.145.978.143.978-.873.978-.972,0-1.942-.013-2.913,0C613.828,88.594,613.642,88.46,613.75,88.036Z" transform="translate(-606.133 -83.238)" fill="#0594d8"/>
    </g>
  </g>
</svg>
